<svg width="316" height="262" viewBox="0 0 316 262" fill="none" xmlns="http://www.w3.org/2000/svg">
<path d="M314.55 37.9496C306.781 63.2776 285.45 135.79 245.123 132.359C228.343 130.931 206.117 119.466 197.225 104.24C178.13 71.5424 215.427 26.4636 238.061 71.0415C250.754 96.0416 233.622 127.062 221.188 148.861C202.86 180.994 173.727 193.575 139.797 203.406C122.565 208.399 37.9037 213.362 40.9883 208.816" stroke="#1C1C1C" stroke-linecap="round"/>
<path d="M10.1069 214.73C13.4434 210.164 40.1155 176.029 36.3154 179.768C31.3416 184.662 26.7165 190.224 21.1666 194.469C14.6004 199.49 9.40148 206.09 2.33072 210.35C-3.87386 214.088 31.7432 227.645 38.3634 228.527" stroke="#1C1C1C" stroke-linecap="round"/>
</svg>
