<svg width="47" height="47" viewBox="0 0 47 47" fill="none" xmlns="http://www.w3.org/2000/svg">
<path d="M41.4922 23.5H38.9219C38.7199 23.5 38.5547 23.6652 38.5547 23.8672V38.5547H8.44531V8.44531H23.1328C23.3348 8.44531 23.5 8.28008 23.5 8.07812V5.50781C23.5 5.30586 23.3348 5.14062 23.1328 5.14062H6.60938C5.79697 5.14062 5.14062 5.79697 5.14062 6.60938V40.3906C5.14062 41.203 5.79697 41.8594 6.60938 41.8594H40.3906C41.203 41.8594 41.8594 41.203 41.8594 40.3906V23.8672C41.8594 23.6652 41.6941 23.5 41.4922 23.5Z" fill="white"/>
<path d="M16.3353 24.5511L16.2481 30.0084C16.2435 30.4169 16.574 30.752 16.9825 30.752H17.0008L22.4168 30.6188C22.5086 30.6143 22.6004 30.5775 22.6647 30.5133L41.7539 11.4654C41.8961 11.3231 41.8961 11.0891 41.7539 10.9468L36.0487 5.24619C35.9752 5.17275 35.8834 5.14062 35.7871 5.14062C35.6907 5.14062 35.5989 5.17734 35.5254 5.24619L16.4409 24.294C16.3746 24.3634 16.3369 24.4552 16.3353 24.5511ZM19.2499 25.6343L35.7871 9.13379L37.8617 11.2038L21.3153 27.7135L19.2177 27.764L19.2499 25.6343Z" fill="white"/>
</svg>
