<svg width="319" height="350" viewBox="0 0 319 350" fill="none" xmlns="http://www.w3.org/2000/svg">
<path d="M0.499497 89.6814C25.9027 83.2287 98.1618 63.9846 115.991 99.8363C123.41 114.754 125.144 139.435 116.845 154.778C99.0215 187.726 41.7447 179.373 67.791 137.326C82.3983 113.745 117.426 112.28 142.244 111.585C178.827 110.559 204.437 128.718 230.189 152.345C243.268 164.344 290.983 233.355 285.555 233.085" stroke="#1C1C1C" stroke-linecap="round"/>
<path d="M306.432 256.151C300.857 255.678 258.293 250.679 263.407 251.969C270.1 253.658 277.179 254.708 283.62 257.217C291.24 260.186 299.491 261.188 306.727 264.975C313.076 268.298 306.227 231.223 303.569 225.173" stroke="#1C1C1C" stroke-linecap="round"/>
</svg>
